<svg xmlns="http://www.w3.org/2000/svg" viewBox="0 0 1000 390" role="img" aria-labelledby="title desc">
  <title id="title">The Complex Systems Group</title>
  <desc id="desc">Black TCSG lettering with a purple network inside the letter C</desc>
  <defs>
    <linearGradient id="purple" x1="0" y1="1" x2="1" y2="0">
      <stop offset="0" stop-color="#d91c8b"/><stop offset="0.52" stop-color="#a02fb3"/><stop offset="1" stop-color="#6558d3"/>
    </linearGradient>
    <clipPath id="cClip"><text x="238" y="255" font-family="Arial Black,Arial,sans-serif" font-size="260" font-weight="900">C</text></clipPath>
  </defs>
  <text x="25" y="255" fill="#000" font-family="Arial Black,Arial,sans-serif" font-size="260" font-weight="900">T</text>
  <text x="470" y="255" fill="#000" font-family="Arial Black,Arial,sans-serif" font-size="260" font-weight="900">SG</text>
  <text x="238" y="255" fill="url(#purple)" font-family="Arial Black,Arial,sans-serif" font-size="260" font-weight="900">C</text>
  <g clip-path="url(#cClip)">
    <g stroke="#fff" stroke-width="3" opacity=".9">
      <path d="M248 210L285 82L355 58L426 96L455 160L405 222L334 259L270 238Z"/>
      <path d="M248 210L334 259M285 82L426 96M285 82L405 222M355 58L455 160M270 238L405 222M334 259L426 96M248 210L455 160"/>
    </g>
    <g fill="#fff">
      <circle cx="248" cy="210" r="8"/><circle cx="285" cy="82" r="8"/><circle cx="355" cy="58" r="8"/>
      <circle cx="426" cy="96" r="8"/><circle cx="455" cy="160" r="8"/><circle cx="405" cy="222" r="8"/>
      <circle cx="334" cy="259" r="8"/><circle cx="270" cy="238" r="8"/>
    </g>
  </g>
  <text x="500" y="350" text-anchor="middle" fill="#000" font-family="Arial,Helvetica,sans-serif" font-size="53">The Complex Systems Group</text>
</svg>
