<?xml version="1.0" encoding="utf-8" standalone="no"?>
<!DOCTYPE svg PUBLIC "-//W3C//DTD SVG 1.1//EN"
  "http://www.w3.org/Graphics/SVG/1.1/DTD/svg11.dtd">
<svg xmlns:xlink="http://www.w3.org/1999/xlink" width="777.6pt" height="320.4pt" viewBox="0 0 777.6 320.4" xmlns="http://www.w3.org/2000/svg" version="1.1">
 <metadata>
  <rdf:RDF xmlns:dc="http://purl.org/dc/elements/1.1/" xmlns:cc="http://creativecommons.org/ns#" xmlns:rdf="http://www.w3.org/1999/02/22-rdf-syntax-ns#">
   <cc:Work>
    <dc:type rdf:resource="http://purl.org/dc/dcmitype/StillImage"/>
    <dc:date>2026-07-29T12:08:49.545057</dc:date>
    <dc:format>image/svg+xml</dc:format>
    <dc:creator>
     <cc:Agent>
      <dc:title>Matplotlib v3.10.8, https://matplotlib.org/</dc:title>
     </cc:Agent>
    </dc:creator>
   </cc:Work>
  </rdf:RDF>
 </metadata>
 <defs>
  <style type="text/css">*{stroke-linejoin: round; stroke-linecap: butt}</style>
 </defs>
 <g id="figure_1">
  <g id="patch_1">
   <path d="M 0 320.4 
L 777.6 320.4 
L 777.6 0 
L 0 0 
L 0 320.4 
z
" style="fill: none"/>
  </g>
  <g id="axes_1">
   <g id="patch_2">
    <path d="M 132.350752 202.853778 
C 143.689473 202.853778 154.565315 198.348856 162.583002 190.33117 
C 170.600688 182.313484 175.105609 171.437641 175.105609 160.098921 
C 175.105609 148.7602 170.600688 137.884358 162.583002 129.866671 
C 154.565315 121.848985 143.689473 117.344064 132.350752 117.344064 
C 121.012032 117.344064 110.136189 121.848985 102.118503 129.866671 
C 94.100817 137.884358 89.595896 148.7602 89.595896 160.098921 
C 89.595896 171.437641 94.100817 182.313484 102.118503 190.33117 
C 110.136189 198.348856 121.012032 202.853778 132.350752 202.853778 
L 132.350752 202.853778 
z
" clip-path="url(#pbfc3b48df5)" style="fill: none; stroke: #1d3158; stroke-width: 3; stroke-linejoin: miter"/>
   </g>
   <g id="patch_3">
    <path d="M 280.805117 220.668301 
C 296.868304 220.668301 312.275747 214.286329 323.634136 202.92794 
C 334.992525 191.569552 341.374497 176.162108 341.374497 160.098921 
C 341.374497 144.035733 334.992525 128.62829 323.634136 117.269901 
C 312.275747 105.911512 296.868304 99.52954 280.805117 99.52954 
C 264.741929 99.52954 249.334486 105.911512 237.976097 117.269901 
C 226.617708 128.62829 220.235736 144.035733 220.235736 160.098921 
C 220.235736 176.162108 226.617708 191.569552 237.976097 202.92794 
C 249.334486 214.286329 264.741929 220.668301 280.805117 220.668301 
L 280.805117 220.668301 
z
" clip-path="url(#pbfc3b48df5)" style="fill: none; stroke: #f3cf52; stroke-width: 3; stroke-linejoin: miter"/>
   </g>
   <g id="line2d_1">
    <path d="M 132.350752 160.098921 
L 175.105609 160.098921 
" clip-path="url(#pbfc3b48df5)" style="fill: none; stroke: #1d3158; stroke-width: 2; stroke-linecap: square"/>
   </g>
   <g id="line2d_2">
    <path d="M 280.805117 160.098921 
L 341.374497 160.098921 
" clip-path="url(#pbfc3b48df5)" style="fill: none; stroke: #f3cf52; stroke-width: 2; stroke-linecap: square"/>
   </g>
   <g id="text_1">
    <!-- $x^2+y^2=R^2$ -->
    <g transform="translate(93.870752 89.434643) scale(0.13 -0.13)">
     <defs>
      <path id="DejaVuSans-Oblique-78" d="M 3841 3500 
L 2234 1784 
L 3219 0 
L 2559 0 
L 1819 1388 
L 531 0 
L -166 0 
L 1556 1844 
L 641 3500 
L 1300 3500 
L 1972 2234 
L 3144 3500 
L 3841 3500 
z
" transform="scale(0.015625)"/>
      <path id="DejaVuSans-32" d="M 1228 531 
L 3431 531 
L 3431 0 
L 469 0 
L 469 531 
Q 828 903 1448 1529 
Q 2069 2156 2228 2338 
Q 2531 2678 2651 2914 
Q 2772 3150 2772 3378 
Q 2772 3750 2511 3984 
Q 2250 4219 1831 4219 
Q 1534 4219 1204 4116 
Q 875 4013 500 3803 
L 500 4441 
Q 881 4594 1212 4672 
Q 1544 4750 1819 4750 
Q 2544 4750 2975 4387 
Q 3406 4025 3406 3419 
Q 3406 3131 3298 2873 
Q 3191 2616 2906 2266 
Q 2828 2175 2409 1742 
Q 1991 1309 1228 531 
z
" transform="scale(0.015625)"/>
      <path id="DejaVuSans-2b" d="M 2944 4013 
L 2944 2272 
L 4684 2272 
L 4684 1741 
L 2944 1741 
L 2944 0 
L 2419 0 
L 2419 1741 
L 678 1741 
L 678 2272 
L 2419 2272 
L 2419 4013 
L 2944 4013 
z
" transform="scale(0.015625)"/>
      <path id="DejaVuSans-Oblique-79" d="M 1588 -325 
Q 1188 -997 936 -1164 
Q 684 -1331 294 -1331 
L -159 -1331 
L -63 -850 
L 269 -850 
Q 509 -850 678 -719 
Q 847 -588 1056 -206 
L 1234 128 
L 459 3500 
L 1069 3500 
L 1650 819 
L 3256 3500 
L 3859 3500 
L 1588 -325 
z
" transform="scale(0.015625)"/>
      <path id="DejaVuSans-3d" d="M 678 2906 
L 4684 2906 
L 4684 2381 
L 678 2381 
L 678 2906 
z
M 678 1631 
L 4684 1631 
L 4684 1100 
L 678 1100 
L 678 1631 
z
" transform="scale(0.015625)"/>
      <path id="DejaVuSans-Oblique-52" d="M 1613 4147 
L 1294 2491 
L 2106 2491 
Q 2584 2491 2879 2755 
Q 3175 3019 3175 3444 
Q 3175 3784 2976 3965 
Q 2778 4147 2406 4147 
L 1613 4147 
z
M 2772 2241 
Q 2972 2194 3105 2009 
Q 3238 1825 3413 1275 
L 3809 0 
L 3144 0 
L 2778 1197 
Q 2638 1659 2453 1815 
Q 2269 1972 1888 1972 
L 1191 1972 
L 806 0 
L 172 0 
L 1081 4666 
L 2503 4666 
Q 3150 4666 3495 4373 
Q 3841 4081 3841 3531 
Q 3841 3044 3547 2687 
Q 3253 2331 2772 2241 
z
" transform="scale(0.015625)"/>
     </defs>
     <use xlink:href="#DejaVuSans-Oblique-78" transform="translate(0 0.765625)"/>
     <use xlink:href="#DejaVuSans-32" transform="translate(63.645833 39.046875) scale(0.7)"/>
     <use xlink:href="#DejaVuSans-2b" transform="translate(130.398763 0.765625)"/>
     <use xlink:href="#DejaVuSans-Oblique-79" transform="translate(233.670247 0.765625)"/>
     <use xlink:href="#DejaVuSans-32" transform="translate(297.316081 39.046875) scale(0.7)"/>
     <use xlink:href="#DejaVuSans-3d" transform="translate(364.06901 0.765625)"/>
     <use xlink:href="#DejaVuSans-Oblique-52" transform="translate(467.340495 0.765625)"/>
     <use xlink:href="#DejaVuSans-32" transform="translate(543.839688 39.046875) scale(0.7)"/>
    </g>
   </g>
   <g id="text_2">
    <!-- $x^2+y^2=(aR)^2$ -->
    <g transform="translate(233.680117 89.434643) scale(0.13 -0.13)">
     <defs>
      <path id="DejaVuSans-28" d="M 1984 4856 
Q 1566 4138 1362 3434 
Q 1159 2731 1159 2009 
Q 1159 1288 1364 580 
Q 1569 -128 1984 -844 
L 1484 -844 
Q 1016 -109 783 600 
Q 550 1309 550 2009 
Q 550 2706 781 3412 
Q 1013 4119 1484 4856 
L 1984 4856 
z
" transform="scale(0.015625)"/>
      <path id="DejaVuSans-Oblique-61" d="M 3438 1997 
L 3047 0 
L 2472 0 
L 2578 531 
Q 2325 219 2001 64 
Q 1678 -91 1281 -91 
Q 834 -91 548 182 
Q 263 456 263 884 
Q 263 1497 752 1853 
Q 1241 2209 2100 2209 
L 2900 2209 
L 2931 2363 
Q 2938 2388 2941 2417 
Q 2944 2447 2944 2509 
Q 2944 2788 2717 2942 
Q 2491 3097 2081 3097 
Q 1800 3097 1504 3025 
Q 1209 2953 897 2809 
L 997 3341 
Q 1322 3463 1633 3523 
Q 1944 3584 2234 3584 
Q 2853 3584 3176 3315 
Q 3500 3047 3500 2534 
Q 3500 2431 3484 2292 
Q 3469 2153 3438 1997 
z
M 2816 1759 
L 2241 1759 
Q 1534 1759 1195 1570 
Q 856 1381 856 984 
Q 856 709 1029 553 
Q 1203 397 1509 397 
Q 1978 397 2328 733 
Q 2678 1069 2791 1631 
L 2816 1759 
z
" transform="scale(0.015625)"/>
      <path id="DejaVuSans-29" d="M 513 4856 
L 1013 4856 
Q 1481 4119 1714 3412 
Q 1947 2706 1947 2009 
Q 1947 1309 1714 600 
Q 1481 -109 1013 -844 
L 513 -844 
Q 928 -128 1133 580 
Q 1338 1288 1338 2009 
Q 1338 2731 1133 3434 
Q 928 4138 513 4856 
z
" transform="scale(0.015625)"/>
     </defs>
     <use xlink:href="#DejaVuSans-Oblique-78" transform="translate(0 0.765625)"/>
     <use xlink:href="#DejaVuSans-32" transform="translate(63.645833 39.046875) scale(0.7)"/>
     <use xlink:href="#DejaVuSans-2b" transform="translate(130.398763 0.765625)"/>
     <use xlink:href="#DejaVuSans-Oblique-79" transform="translate(233.670247 0.765625)"/>
     <use xlink:href="#DejaVuSans-32" transform="translate(297.316081 39.046875) scale(0.7)"/>
     <use xlink:href="#DejaVuSans-3d" transform="translate(364.06901 0.765625)"/>
     <use xlink:href="#DejaVuSans-28" transform="translate(467.340495 0.765625)"/>
     <use xlink:href="#DejaVuSans-Oblique-61" transform="translate(506.354167 0.765625)"/>
     <use xlink:href="#DejaVuSans-Oblique-52" transform="translate(567.633464 0.765625)"/>
     <use xlink:href="#DejaVuSans-29" transform="translate(637.115885 0.765625)"/>
     <use xlink:href="#DejaVuSans-32" transform="translate(677.086589 39.046875) scale(0.7)"/>
    </g>
   </g>
   <g id="text_3">
    <!-- $R$ -->
    <g style="fill: #1d3158" transform="translate(149.040546 154.754564) scale(0.1 -0.1)">
     <use xlink:href="#DejaVuSans-Oblique-52" transform="translate(0 0.09375)"/>
    </g>
   </g>
   <g id="text_4">
    <!-- $aR$ -->
    <g style="fill: #856600" transform="translate(304.539807 154.754564) scale(0.1 -0.1)">
     <use xlink:href="#DejaVuSans-Oblique-61" transform="translate(0 0.09375)"/>
     <use xlink:href="#DejaVuSans-Oblique-52" transform="translate(61.279297 0.09375)"/>
    </g>
   </g>
   <g id="text_5">
    <!-- $A(R)=\pi R^2,\qquad A(aR)=a^2A(R)$ -->
    <g style="fill: #1d3158" transform="translate(109.207934 237.29519) scale(0.13 -0.13)">
     <defs>
      <path id="DejaVuSans-Oblique-41" d="M 2356 4666 
L 3072 4666 
L 3938 0 
L 3278 0 
L 3084 1197 
L 984 1197 
L 325 0 
L -341 0 
L 2356 4666 
z
M 2584 4044 
L 1275 1722 
L 2988 1722 
L 2584 4044 
z
" transform="scale(0.015625)"/>
      <path id="DejaVuSans-Oblique-3c0" d="M 584 3500 
L 3938 3500 
L 3825 2925 
L 3384 2925 
L 2966 775 
Q 2922 550 2981 450 
Q 3038 353 3209 353 
Q 3256 353 3325 363 
Q 3397 369 3419 372 
L 3338 -44 
Q 3222 -84 3103 -103 
Q 2981 -122 2866 -122 
Q 2491 -122 2388 81 
Q 2284 288 2391 838 
L 2797 2925 
L 1506 2925 
L 938 0 
L 350 0 
L 919 2925 
L 472 2925 
L 584 3500 
z
" transform="scale(0.015625)"/>
      <path id="DejaVuSans-2c" d="M 750 794 
L 1409 794 
L 1409 256 
L 897 -744 
L 494 -744 
L 750 256 
L 750 794 
z
" transform="scale(0.015625)"/>
     </defs>
     <use xlink:href="#DejaVuSans-Oblique-41" transform="translate(0 0.765625)"/>
     <use xlink:href="#DejaVuSans-28" transform="translate(68.408203 0.765625)"/>
     <use xlink:href="#DejaVuSans-Oblique-52" transform="translate(107.421875 0.765625)"/>
     <use xlink:href="#DejaVuSans-29" transform="translate(176.904297 0.765625)"/>
     <use xlink:href="#DejaVuSans-3d" transform="translate(235.400391 0.765625)"/>
     <use xlink:href="#DejaVuSans-Oblique-3c0" transform="translate(338.671875 0.765625)"/>
     <use xlink:href="#DejaVuSans-Oblique-52" transform="translate(398.876953 0.765625)"/>
     <use xlink:href="#DejaVuSans-32" transform="translate(475.376146 39.046875) scale(0.7)"/>
     <use xlink:href="#DejaVuSans-2c" transform="translate(522.646654 0.765625)"/>
     <use xlink:href="#DejaVuSans-Oblique-41" transform="translate(768.740404 0.765625)"/>
     <use xlink:href="#DejaVuSans-28" transform="translate(837.148607 0.765625)"/>
     <use xlink:href="#DejaVuSans-Oblique-61" transform="translate(876.162279 0.765625)"/>
     <use xlink:href="#DejaVuSans-Oblique-52" transform="translate(937.441576 0.765625)"/>
     <use xlink:href="#DejaVuSans-29" transform="translate(1006.923997 0.765625)"/>
     <use xlink:href="#DejaVuSans-3d" transform="translate(1065.420091 0.765625)"/>
     <use xlink:href="#DejaVuSans-Oblique-61" transform="translate(1168.691576 0.765625)"/>
     <use xlink:href="#DejaVuSans-32" transform="translate(1234.620768 39.046875) scale(0.7)"/>
     <use xlink:href="#DejaVuSans-Oblique-41" transform="translate(1281.891276 0.765625)"/>
     <use xlink:href="#DejaVuSans-28" transform="translate(1350.299479 0.765625)"/>
     <use xlink:href="#DejaVuSans-Oblique-52" transform="translate(1389.313151 0.765625)"/>
     <use xlink:href="#DejaVuSans-29" transform="translate(1458.795573 0.765625)"/>
    </g>
   </g>
   <g id="text_6">
    <!-- $R$ remains a characteristic length; changing it selects a different circle. -->
    <g style="fill: #68758c" transform="translate(19.992934 258.078801) scale(0.105 -0.105)">
     <defs>
      <path id="DejaVuSans-20" transform="scale(0.015625)"/>
      <path id="DejaVuSans-72" d="M 2631 2963 
Q 2534 3019 2420 3045 
Q 2306 3072 2169 3072 
Q 1681 3072 1420 2755 
Q 1159 2438 1159 1844 
L 1159 0 
L 581 0 
L 581 3500 
L 1159 3500 
L 1159 2956 
Q 1341 3275 1631 3429 
Q 1922 3584 2338 3584 
Q 2397 3584 2469 3576 
Q 2541 3569 2628 3553 
L 2631 2963 
z
" transform="scale(0.015625)"/>
      <path id="DejaVuSans-65" d="M 3597 1894 
L 3597 1613 
L 953 1613 
Q 991 1019 1311 708 
Q 1631 397 2203 397 
Q 2534 397 2845 478 
Q 3156 559 3463 722 
L 3463 178 
Q 3153 47 2828 -22 
Q 2503 -91 2169 -91 
Q 1331 -91 842 396 
Q 353 884 353 1716 
Q 353 2575 817 3079 
Q 1281 3584 2069 3584 
Q 2775 3584 3186 3129 
Q 3597 2675 3597 1894 
z
M 3022 2063 
Q 3016 2534 2758 2815 
Q 2500 3097 2075 3097 
Q 1594 3097 1305 2825 
Q 1016 2553 972 2059 
L 3022 2063 
z
" transform="scale(0.015625)"/>
      <path id="DejaVuSans-6d" d="M 3328 2828 
Q 3544 3216 3844 3400 
Q 4144 3584 4550 3584 
Q 5097 3584 5394 3201 
Q 5691 2819 5691 2113 
L 5691 0 
L 5113 0 
L 5113 2094 
Q 5113 2597 4934 2840 
Q 4756 3084 4391 3084 
Q 3944 3084 3684 2787 
Q 3425 2491 3425 1978 
L 3425 0 
L 2847 0 
L 2847 2094 
Q 2847 2600 2669 2842 
Q 2491 3084 2119 3084 
Q 1678 3084 1418 2786 
Q 1159 2488 1159 1978 
L 1159 0 
L 581 0 
L 581 3500 
L 1159 3500 
L 1159 2956 
Q 1356 3278 1631 3431 
Q 1906 3584 2284 3584 
Q 2666 3584 2933 3390 
Q 3200 3197 3328 2828 
z
" transform="scale(0.015625)"/>
      <path id="DejaVuSans-61" d="M 2194 1759 
Q 1497 1759 1228 1600 
Q 959 1441 959 1056 
Q 959 750 1161 570 
Q 1363 391 1709 391 
Q 2188 391 2477 730 
Q 2766 1069 2766 1631 
L 2766 1759 
L 2194 1759 
z
M 3341 1997 
L 3341 0 
L 2766 0 
L 2766 531 
Q 2569 213 2275 61 
Q 1981 -91 1556 -91 
Q 1019 -91 701 211 
Q 384 513 384 1019 
Q 384 1609 779 1909 
Q 1175 2209 1959 2209 
L 2766 2209 
L 2766 2266 
Q 2766 2663 2505 2880 
Q 2244 3097 1772 3097 
Q 1472 3097 1187 3025 
Q 903 2953 641 2809 
L 641 3341 
Q 956 3463 1253 3523 
Q 1550 3584 1831 3584 
Q 2591 3584 2966 3190 
Q 3341 2797 3341 1997 
z
" transform="scale(0.015625)"/>
      <path id="DejaVuSans-69" d="M 603 3500 
L 1178 3500 
L 1178 0 
L 603 0 
L 603 3500 
z
M 603 4863 
L 1178 4863 
L 1178 4134 
L 603 4134 
L 603 4863 
z
" transform="scale(0.015625)"/>
      <path id="DejaVuSans-6e" d="M 3513 2113 
L 3513 0 
L 2938 0 
L 2938 2094 
Q 2938 2591 2744 2837 
Q 2550 3084 2163 3084 
Q 1697 3084 1428 2787 
Q 1159 2491 1159 1978 
L 1159 0 
L 581 0 
L 581 3500 
L 1159 3500 
L 1159 2956 
Q 1366 3272 1645 3428 
Q 1925 3584 2291 3584 
Q 2894 3584 3203 3211 
Q 3513 2838 3513 2113 
z
" transform="scale(0.015625)"/>
      <path id="DejaVuSans-73" d="M 2834 3397 
L 2834 2853 
Q 2591 2978 2328 3040 
Q 2066 3103 1784 3103 
Q 1356 3103 1142 2972 
Q 928 2841 928 2578 
Q 928 2378 1081 2264 
Q 1234 2150 1697 2047 
L 1894 2003 
Q 2506 1872 2764 1633 
Q 3022 1394 3022 966 
Q 3022 478 2636 193 
Q 2250 -91 1575 -91 
Q 1294 -91 989 -36 
Q 684 19 347 128 
L 347 722 
Q 666 556 975 473 
Q 1284 391 1588 391 
Q 1994 391 2212 530 
Q 2431 669 2431 922 
Q 2431 1156 2273 1281 
Q 2116 1406 1581 1522 
L 1381 1569 
Q 847 1681 609 1914 
Q 372 2147 372 2553 
Q 372 3047 722 3315 
Q 1072 3584 1716 3584 
Q 2034 3584 2315 3537 
Q 2597 3491 2834 3397 
z
" transform="scale(0.015625)"/>
      <path id="DejaVuSans-63" d="M 3122 3366 
L 3122 2828 
Q 2878 2963 2633 3030 
Q 2388 3097 2138 3097 
Q 1578 3097 1268 2742 
Q 959 2388 959 1747 
Q 959 1106 1268 751 
Q 1578 397 2138 397 
Q 2388 397 2633 464 
Q 2878 531 3122 666 
L 3122 134 
Q 2881 22 2623 -34 
Q 2366 -91 2075 -91 
Q 1284 -91 818 406 
Q 353 903 353 1747 
Q 353 2603 823 3093 
Q 1294 3584 2113 3584 
Q 2378 3584 2631 3529 
Q 2884 3475 3122 3366 
z
" transform="scale(0.015625)"/>
      <path id="DejaVuSans-68" d="M 3513 2113 
L 3513 0 
L 2938 0 
L 2938 2094 
Q 2938 2591 2744 2837 
Q 2550 3084 2163 3084 
Q 1697 3084 1428 2787 
Q 1159 2491 1159 1978 
L 1159 0 
L 581 0 
L 581 4863 
L 1159 4863 
L 1159 2956 
Q 1366 3272 1645 3428 
Q 1925 3584 2291 3584 
Q 2894 3584 3203 3211 
Q 3513 2838 3513 2113 
z
" transform="scale(0.015625)"/>
      <path id="DejaVuSans-74" d="M 1172 4494 
L 1172 3500 
L 2356 3500 
L 2356 3053 
L 1172 3053 
L 1172 1153 
Q 1172 725 1289 603 
Q 1406 481 1766 481 
L 2356 481 
L 2356 0 
L 1766 0 
Q 1100 0 847 248 
Q 594 497 594 1153 
L 594 3053 
L 172 3053 
L 172 3500 
L 594 3500 
L 594 4494 
L 1172 4494 
z
" transform="scale(0.015625)"/>
      <path id="DejaVuSans-6c" d="M 603 4863 
L 1178 4863 
L 1178 0 
L 603 0 
L 603 4863 
z
" transform="scale(0.015625)"/>
      <path id="DejaVuSans-67" d="M 2906 1791 
Q 2906 2416 2648 2759 
Q 2391 3103 1925 3103 
Q 1463 3103 1205 2759 
Q 947 2416 947 1791 
Q 947 1169 1205 825 
Q 1463 481 1925 481 
Q 2391 481 2648 825 
Q 2906 1169 2906 1791 
z
M 3481 434 
Q 3481 -459 3084 -895 
Q 2688 -1331 1869 -1331 
Q 1566 -1331 1297 -1286 
Q 1028 -1241 775 -1147 
L 775 -588 
Q 1028 -725 1275 -790 
Q 1522 -856 1778 -856 
Q 2344 -856 2625 -561 
Q 2906 -266 2906 331 
L 2906 616 
Q 2728 306 2450 153 
Q 2172 0 1784 0 
Q 1141 0 747 490 
Q 353 981 353 1791 
Q 353 2603 747 3093 
Q 1141 3584 1784 3584 
Q 2172 3584 2450 3431 
Q 2728 3278 2906 2969 
L 2906 3500 
L 3481 3500 
L 3481 434 
z
" transform="scale(0.015625)"/>
      <path id="DejaVuSans-3b" d="M 750 3309 
L 1409 3309 
L 1409 2516 
L 750 2516 
L 750 3309 
z
M 750 794 
L 1409 794 
L 1409 256 
L 897 -744 
L 494 -744 
L 750 256 
L 750 794 
z
" transform="scale(0.015625)"/>
      <path id="DejaVuSans-64" d="M 2906 2969 
L 2906 4863 
L 3481 4863 
L 3481 0 
L 2906 0 
L 2906 525 
Q 2725 213 2448 61 
Q 2172 -91 1784 -91 
Q 1150 -91 751 415 
Q 353 922 353 1747 
Q 353 2572 751 3078 
Q 1150 3584 1784 3584 
Q 2172 3584 2448 3432 
Q 2725 3281 2906 2969 
z
M 947 1747 
Q 947 1113 1208 752 
Q 1469 391 1925 391 
Q 2381 391 2643 752 
Q 2906 1113 2906 1747 
Q 2906 2381 2643 2742 
Q 2381 3103 1925 3103 
Q 1469 3103 1208 2742 
Q 947 2381 947 1747 
z
" transform="scale(0.015625)"/>
      <path id="DejaVuSans-66" d="M 2375 4863 
L 2375 4384 
L 1825 4384 
Q 1516 4384 1395 4259 
Q 1275 4134 1275 3809 
L 1275 3500 
L 2222 3500 
L 2222 3053 
L 1275 3053 
L 1275 0 
L 697 0 
L 697 3053 
L 147 3053 
L 147 3500 
L 697 3500 
L 697 3744 
Q 697 4328 969 4595 
Q 1241 4863 1831 4863 
L 2375 4863 
z
" transform="scale(0.015625)"/>
      <path id="DejaVuSans-2e" d="M 684 794 
L 1344 794 
L 1344 0 
L 684 0 
L 684 794 
z
" transform="scale(0.015625)"/>
     </defs>
     <use xlink:href="#DejaVuSans-Oblique-52" transform="translate(0 0.015625)"/>
     <use xlink:href="#DejaVuSans-20" transform="translate(69.482422 0.015625)"/>
     <use xlink:href="#DejaVuSans-72" transform="translate(101.269531 0.015625)"/>
     <use xlink:href="#DejaVuSans-65" transform="translate(142.382812 0.015625)"/>
     <use xlink:href="#DejaVuSans-6d" transform="translate(203.90625 0.015625)"/>
     <use xlink:href="#DejaVuSans-61" transform="translate(301.318359 0.015625)"/>
     <use xlink:href="#DejaVuSans-69" transform="translate(362.597656 0.015625)"/>
     <use xlink:href="#DejaVuSans-6e" transform="translate(390.380859 0.015625)"/>
     <use xlink:href="#DejaVuSans-73" transform="translate(453.759766 0.015625)"/>
     <use xlink:href="#DejaVuSans-20" transform="translate(505.859375 0.015625)"/>
     <use xlink:href="#DejaVuSans-61" transform="translate(537.646484 0.015625)"/>
     <use xlink:href="#DejaVuSans-20" transform="translate(598.925781 0.015625)"/>
     <use xlink:href="#DejaVuSans-63" transform="translate(630.712891 0.015625)"/>
     <use xlink:href="#DejaVuSans-68" transform="translate(685.693359 0.015625)"/>
     <use xlink:href="#DejaVuSans-61" transform="translate(749.072266 0.015625)"/>
     <use xlink:href="#DejaVuSans-72" transform="translate(810.351562 0.015625)"/>
     <use xlink:href="#DejaVuSans-61" transform="translate(851.464844 0.015625)"/>
     <use xlink:href="#DejaVuSans-63" transform="translate(912.744141 0.015625)"/>
     <use xlink:href="#DejaVuSans-74" transform="translate(967.724609 0.015625)"/>
     <use xlink:href="#DejaVuSans-65" transform="translate(1006.933594 0.015625)"/>
     <use xlink:href="#DejaVuSans-72" transform="translate(1068.457031 0.015625)"/>
     <use xlink:href="#DejaVuSans-69" transform="translate(1109.570312 0.015625)"/>
     <use xlink:href="#DejaVuSans-73" transform="translate(1137.353516 0.015625)"/>
     <use xlink:href="#DejaVuSans-74" transform="translate(1189.453125 0.015625)"/>
     <use xlink:href="#DejaVuSans-69" transform="translate(1228.662109 0.015625)"/>
     <use xlink:href="#DejaVuSans-63" transform="translate(1256.445312 0.015625)"/>
     <use xlink:href="#DejaVuSans-20" transform="translate(1311.425781 0.015625)"/>
     <use xlink:href="#DejaVuSans-6c" transform="translate(1343.212891 0.015625)"/>
     <use xlink:href="#DejaVuSans-65" transform="translate(1370.996094 0.015625)"/>
     <use xlink:href="#DejaVuSans-6e" transform="translate(1432.519531 0.015625)"/>
     <use xlink:href="#DejaVuSans-67" transform="translate(1495.898438 0.015625)"/>
     <use xlink:href="#DejaVuSans-74" transform="translate(1559.375 0.015625)"/>
     <use xlink:href="#DejaVuSans-68" transform="translate(1598.583984 0.015625)"/>
     <use xlink:href="#DejaVuSans-3b" transform="translate(1661.962891 0.015625)"/>
     <use xlink:href="#DejaVuSans-20" transform="translate(1695.654297 0.015625)"/>
     <use xlink:href="#DejaVuSans-63" transform="translate(1727.441406 0.015625)"/>
     <use xlink:href="#DejaVuSans-68" transform="translate(1782.421875 0.015625)"/>
     <use xlink:href="#DejaVuSans-61" transform="translate(1845.800781 0.015625)"/>
     <use xlink:href="#DejaVuSans-6e" transform="translate(1907.080078 0.015625)"/>
     <use xlink:href="#DejaVuSans-67" transform="translate(1970.458984 0.015625)"/>
     <use xlink:href="#DejaVuSans-69" transform="translate(2033.935547 0.015625)"/>
     <use xlink:href="#DejaVuSans-6e" transform="translate(2061.71875 0.015625)"/>
     <use xlink:href="#DejaVuSans-67" transform="translate(2125.097656 0.015625)"/>
     <use xlink:href="#DejaVuSans-20" transform="translate(2188.574219 0.015625)"/>
     <use xlink:href="#DejaVuSans-69" transform="translate(2220.361328 0.015625)"/>
     <use xlink:href="#DejaVuSans-74" transform="translate(2248.144531 0.015625)"/>
     <use xlink:href="#DejaVuSans-20" transform="translate(2287.353516 0.015625)"/>
     <use xlink:href="#DejaVuSans-73" transform="translate(2319.140625 0.015625)"/>
     <use xlink:href="#DejaVuSans-65" transform="translate(2371.240234 0.015625)"/>
     <use xlink:href="#DejaVuSans-6c" transform="translate(2432.763672 0.015625)"/>
     <use xlink:href="#DejaVuSans-65" transform="translate(2460.546875 0.015625)"/>
     <use xlink:href="#DejaVuSans-63" transform="translate(2522.070312 0.015625)"/>
     <use xlink:href="#DejaVuSans-74" transform="translate(2577.050781 0.015625)"/>
     <use xlink:href="#DejaVuSans-73" transform="translate(2616.259766 0.015625)"/>
     <use xlink:href="#DejaVuSans-20" transform="translate(2668.359375 0.015625)"/>
     <use xlink:href="#DejaVuSans-61" transform="translate(2700.146484 0.015625)"/>
     <use xlink:href="#DejaVuSans-20" transform="translate(2761.425781 0.015625)"/>
     <use xlink:href="#DejaVuSans-64" transform="translate(2793.212891 0.015625)"/>
     <use xlink:href="#DejaVuSans-69" transform="translate(2856.689453 0.015625)"/>
     <use xlink:href="#DejaVuSans-66" transform="translate(2884.472656 0.015625)"/>
     <use xlink:href="#DejaVuSans-66" transform="translate(2919.677734 0.015625)"/>
     <use xlink:href="#DejaVuSans-65" transform="translate(2954.882812 0.015625)"/>
     <use xlink:href="#DejaVuSans-72" transform="translate(3016.40625 0.015625)"/>
     <use xlink:href="#DejaVuSans-65" transform="translate(3057.519531 0.015625)"/>
     <use xlink:href="#DejaVuSans-6e" transform="translate(3119.042969 0.015625)"/>
     <use xlink:href="#DejaVuSans-74" transform="translate(3182.421875 0.015625)"/>
     <use xlink:href="#DejaVuSans-20" transform="translate(3221.630859 0.015625)"/>
     <use xlink:href="#DejaVuSans-63" transform="translate(3253.417969 0.015625)"/>
     <use xlink:href="#DejaVuSans-69" transform="translate(3308.398438 0.015625)"/>
     <use xlink:href="#DejaVuSans-72" transform="translate(3336.181641 0.015625)"/>
     <use xlink:href="#DejaVuSans-63" transform="translate(3377.294922 0.015625)"/>
     <use xlink:href="#DejaVuSans-6c" transform="translate(3432.275391 0.015625)"/>
     <use xlink:href="#DejaVuSans-65" transform="translate(3460.058594 0.015625)"/>
     <use xlink:href="#DejaVuSans-2e" transform="translate(3521.582031 0.015625)"/>
    </g>
   </g>
   <g id="text_7">
    <!-- A family of circles -->
    <g style="fill: #1d3158" transform="translate(144.502153 60.651032) scale(0.14 -0.14)">
     <defs>
      <path id="DejaVuSans-41" d="M 2188 4044 
L 1331 1722 
L 3047 1722 
L 2188 4044 
z
M 1831 4666 
L 2547 4666 
L 4325 0 
L 3669 0 
L 3244 1197 
L 1141 1197 
L 716 0 
L 50 0 
L 1831 4666 
z
" transform="scale(0.015625)"/>
      <path id="DejaVuSans-79" d="M 2059 -325 
Q 1816 -950 1584 -1140 
Q 1353 -1331 966 -1331 
L 506 -1331 
L 506 -850 
L 844 -850 
Q 1081 -850 1212 -737 
Q 1344 -625 1503 -206 
L 1606 56 
L 191 3500 
L 800 3500 
L 1894 763 
L 2988 3500 
L 3597 3500 
L 2059 -325 
z
" transform="scale(0.015625)"/>
      <path id="DejaVuSans-6f" d="M 1959 3097 
Q 1497 3097 1228 2736 
Q 959 2375 959 1747 
Q 959 1119 1226 758 
Q 1494 397 1959 397 
Q 2419 397 2687 759 
Q 2956 1122 2956 1747 
Q 2956 2369 2687 2733 
Q 2419 3097 1959 3097 
z
M 1959 3584 
Q 2709 3584 3137 3096 
Q 3566 2609 3566 1747 
Q 3566 888 3137 398 
Q 2709 -91 1959 -91 
Q 1206 -91 779 398 
Q 353 888 353 1747 
Q 353 2609 779 3096 
Q 1206 3584 1959 3584 
z
" transform="scale(0.015625)"/>
     </defs>
     <use xlink:href="#DejaVuSans-41"/>
     <use xlink:href="#DejaVuSans-20" transform="translate(68.408203 0)"/>
     <use xlink:href="#DejaVuSans-66" transform="translate(100.195312 0)"/>
     <use xlink:href="#DejaVuSans-61" transform="translate(135.400391 0)"/>
     <use xlink:href="#DejaVuSans-6d" transform="translate(196.679688 0)"/>
     <use xlink:href="#DejaVuSans-69" transform="translate(294.091797 0)"/>
     <use xlink:href="#DejaVuSans-6c" transform="translate(321.875 0)"/>
     <use xlink:href="#DejaVuSans-79" transform="translate(349.658203 0)"/>
     <use xlink:href="#DejaVuSans-20" transform="translate(408.837891 0)"/>
     <use xlink:href="#DejaVuSans-6f" transform="translate(440.625 0)"/>
     <use xlink:href="#DejaVuSans-66" transform="translate(501.806641 0)"/>
     <use xlink:href="#DejaVuSans-20" transform="translate(537.011719 0)"/>
     <use xlink:href="#DejaVuSans-63" transform="translate(568.798828 0)"/>
     <use xlink:href="#DejaVuSans-69" transform="translate(623.779297 0)"/>
     <use xlink:href="#DejaVuSans-72" transform="translate(651.5625 0)"/>
     <use xlink:href="#DejaVuSans-63" transform="translate(690.425781 0)"/>
     <use xlink:href="#DejaVuSans-6c" transform="translate(745.40625 0)"/>
     <use xlink:href="#DejaVuSans-65" transform="translate(773.189453 0)"/>
     <use xlink:href="#DejaVuSans-73" transform="translate(834.712891 0)"/>
    </g>
   </g>
  </g>
  <g id="axes_2">
   <g id="patch_4">
    <path d="M 500.690234 208.1 
L 511.627734 208.1 
L 506.158984 198.627847 
z
" clip-path="url(#p0f72ddf439)" style="fill: #1d3158"/>
   </g>
   <g id="patch_5">
    <path d="M 511.627734 208.1 
L 522.565234 208.1 
L 517.096484 198.627847 
z
" clip-path="url(#p0f72ddf439)" style="fill: #1d3158"/>
   </g>
   <g id="patch_6">
    <path d="M 506.158984 198.627847 
L 517.096484 198.627847 
L 511.627734 189.155694 
z
" clip-path="url(#p0f72ddf439)" style="fill: #1d3158"/>
   </g>
   <g id="patch_7">
    <path d="M 522.565234 208.1 
L 533.502734 208.1 
L 528.033984 198.627847 
z
" clip-path="url(#p0f72ddf439)" style="fill: #1d3158"/>
   </g>
   <g id="patch_8">
    <path d="M 533.502734 208.1 
L 544.440234 208.1 
L 538.971484 198.627847 
z
" clip-path="url(#p0f72ddf439)" style="fill: #1d3158"/>
   </g>
   <g id="patch_9">
    <path d="M 528.033984 198.627847 
L 538.971484 198.627847 
L 533.502734 189.155694 
z
" clip-path="url(#p0f72ddf439)" style="fill: #1d3158"/>
   </g>
   <g id="patch_10">
    <path d="M 511.627734 189.155694 
L 522.565234 189.155694 
L 517.096484 179.683541 
z
" clip-path="url(#p0f72ddf439)" style="fill: #1d3158"/>
   </g>
   <g id="patch_11">
    <path d="M 522.565234 189.155694 
L 533.502734 189.155694 
L 528.033984 179.683541 
z
" clip-path="url(#p0f72ddf439)" style="fill: #1d3158"/>
   </g>
   <g id="patch_12">
    <path d="M 517.096484 179.683541 
L 528.033984 179.683541 
L 522.565234 170.211389 
z
" clip-path="url(#p0f72ddf439)" style="fill: #1d3158"/>
   </g>
   <g id="patch_13">
    <path d="M 544.440234 208.1 
L 555.377734 208.1 
L 549.908984 198.627847 
z
" clip-path="url(#p0f72ddf439)" style="fill: #1d3158"/>
   </g>
   <g id="patch_14">
    <path d="M 555.377734 208.1 
L 566.315234 208.1 
L 560.846484 198.627847 
z
" clip-path="url(#p0f72ddf439)" style="fill: #1d3158"/>
   </g>
   <g id="patch_15">
    <path d="M 549.908984 198.627847 
L 560.846484 198.627847 
L 555.377734 189.155694 
z
" clip-path="url(#p0f72ddf439)" style="fill: #1d3158"/>
   </g>
   <g id="patch_16">
    <path d="M 566.315234 208.1 
L 577.252734 208.1 
L 571.783984 198.627847 
z
" clip-path="url(#p0f72ddf439)" style="fill: #1d3158"/>
   </g>
   <g id="patch_17">
    <path d="M 577.252734 208.1 
L 588.190234 208.1 
L 582.721484 198.627847 
z
" clip-path="url(#p0f72ddf439)" style="fill: #1d3158"/>
   </g>
   <g id="patch_18">
    <path d="M 571.783984 198.627847 
L 582.721484 198.627847 
L 577.252734 189.155694 
z
" clip-path="url(#p0f72ddf439)" style="fill: #1d3158"/>
   </g>
   <g id="patch_19">
    <path d="M 555.377734 189.155694 
L 566.315234 189.155694 
L 560.846484 179.683541 
z
" clip-path="url(#p0f72ddf439)" style="fill: #1d3158"/>
   </g>
   <g id="patch_20">
    <path d="M 566.315234 189.155694 
L 577.252734 189.155694 
L 571.783984 179.683541 
z
" clip-path="url(#p0f72ddf439)" style="fill: #1d3158"/>
   </g>
   <g id="patch_21">
    <path d="M 560.846484 179.683541 
L 571.783984 179.683541 
L 566.315234 170.211389 
z
" clip-path="url(#p0f72ddf439)" style="fill: #1d3158"/>
   </g>
   <g id="patch_22">
    <path d="M 522.565234 170.211389 
L 533.502734 170.211389 
L 528.033984 160.739236 
z
" clip-path="url(#p0f72ddf439)" style="fill: #1d3158"/>
   </g>
   <g id="patch_23">
    <path d="M 533.502734 170.211389 
L 544.440234 170.211389 
L 538.971484 160.739236 
z
" clip-path="url(#p0f72ddf439)" style="fill: #1d3158"/>
   </g>
   <g id="patch_24">
    <path d="M 528.033984 160.739236 
L 538.971484 160.739236 
L 533.502734 151.267083 
z
" clip-path="url(#p0f72ddf439)" style="fill: #1d3158"/>
   </g>
   <g id="patch_25">
    <path d="M 544.440234 170.211389 
L 555.377734 170.211389 
L 549.908984 160.739236 
z
" clip-path="url(#p0f72ddf439)" style="fill: #1d3158"/>
   </g>
   <g id="patch_26">
    <path d="M 555.377734 170.211389 
L 566.315234 170.211389 
L 560.846484 160.739236 
z
" clip-path="url(#p0f72ddf439)" style="fill: #1d3158"/>
   </g>
   <g id="patch_27">
    <path d="M 549.908984 160.739236 
L 560.846484 160.739236 
L 555.377734 151.267083 
z
" clip-path="url(#p0f72ddf439)" style="fill: #1d3158"/>
   </g>
   <g id="patch_28">
    <path d="M 533.502734 151.267083 
L 544.440234 151.267083 
L 538.971484 141.79493 
z
" clip-path="url(#p0f72ddf439)" style="fill: #1d3158"/>
   </g>
   <g id="patch_29">
    <path d="M 544.440234 151.267083 
L 555.377734 151.267083 
L 549.908984 141.79493 
z
" clip-path="url(#p0f72ddf439)" style="fill: #1d3158"/>
   </g>
   <g id="patch_30">
    <path d="M 538.971484 141.79493 
L 549.908984 141.79493 
L 544.440234 132.322777 
z
" clip-path="url(#p0f72ddf439)" style="fill: #1d3158"/>
   </g>
   <g id="patch_31">
    <path d="M 588.190234 208.1 
L 599.127734 208.1 
L 593.658984 198.627847 
z
" clip-path="url(#p0f72ddf439)" style="fill: #1d3158"/>
   </g>
   <g id="patch_32">
    <path d="M 599.127734 208.1 
L 610.065234 208.1 
L 604.596484 198.627847 
z
" clip-path="url(#p0f72ddf439)" style="fill: #1d3158"/>
   </g>
   <g id="patch_33">
    <path d="M 593.658984 198.627847 
L 604.596484 198.627847 
L 599.127734 189.155694 
z
" clip-path="url(#p0f72ddf439)" style="fill: #1d3158"/>
   </g>
   <g id="patch_34">
    <path d="M 610.065234 208.1 
L 621.002734 208.1 
L 615.533984 198.627847 
z
" clip-path="url(#p0f72ddf439)" style="fill: #1d3158"/>
   </g>
   <g id="patch_35">
    <path d="M 621.002734 208.1 
L 631.940234 208.1 
L 626.471484 198.627847 
z
" clip-path="url(#p0f72ddf439)" style="fill: #1d3158"/>
   </g>
   <g id="patch_36">
    <path d="M 615.533984 198.627847 
L 626.471484 198.627847 
L 621.002734 189.155694 
z
" clip-path="url(#p0f72ddf439)" style="fill: #1d3158"/>
   </g>
   <g id="patch_37">
    <path d="M 599.127734 189.155694 
L 610.065234 189.155694 
L 604.596484 179.683541 
z
" clip-path="url(#p0f72ddf439)" style="fill: #1d3158"/>
   </g>
   <g id="patch_38">
    <path d="M 610.065234 189.155694 
L 621.002734 189.155694 
L 615.533984 179.683541 
z
" clip-path="url(#p0f72ddf439)" style="fill: #1d3158"/>
   </g>
   <g id="patch_39">
    <path d="M 604.596484 179.683541 
L 615.533984 179.683541 
L 610.065234 170.211389 
z
" clip-path="url(#p0f72ddf439)" style="fill: #1d3158"/>
   </g>
   <g id="patch_40">
    <path d="M 631.940234 208.1 
L 642.877734 208.1 
L 637.408984 198.627847 
z
" clip-path="url(#p0f72ddf439)" style="fill: #1d3158"/>
   </g>
   <g id="patch_41">
    <path d="M 642.877734 208.1 
L 653.815234 208.1 
L 648.346484 198.627847 
z
" clip-path="url(#p0f72ddf439)" style="fill: #1d3158"/>
   </g>
   <g id="patch_42">
    <path d="M 637.408984 198.627847 
L 648.346484 198.627847 
L 642.877734 189.155694 
z
" clip-path="url(#p0f72ddf439)" style="fill: #1d3158"/>
   </g>
   <g id="patch_43">
    <path d="M 653.815234 208.1 
L 664.752734 208.1 
L 659.283984 198.627847 
z
" clip-path="url(#p0f72ddf439)" style="fill: #1d3158"/>
   </g>
   <g id="patch_44">
    <path d="M 664.752734 208.1 
L 675.690234 208.1 
L 670.221484 198.627847 
z
" clip-path="url(#p0f72ddf439)" style="fill: #1d3158"/>
   </g>
   <g id="patch_45">
    <path d="M 659.283984 198.627847 
L 670.221484 198.627847 
L 664.752734 189.155694 
z
" clip-path="url(#p0f72ddf439)" style="fill: #1d3158"/>
   </g>
   <g id="patch_46">
    <path d="M 642.877734 189.155694 
L 653.815234 189.155694 
L 648.346484 179.683541 
z
" clip-path="url(#p0f72ddf439)" style="fill: #1d3158"/>
   </g>
   <g id="patch_47">
    <path d="M 653.815234 189.155694 
L 664.752734 189.155694 
L 659.283984 179.683541 
z
" clip-path="url(#p0f72ddf439)" style="fill: #1d3158"/>
   </g>
   <g id="patch_48">
    <path d="M 648.346484 179.683541 
L 659.283984 179.683541 
L 653.815234 170.211389 
z
" clip-path="url(#p0f72ddf439)" style="fill: #1d3158"/>
   </g>
   <g id="patch_49">
    <path d="M 610.065234 170.211389 
L 621.002734 170.211389 
L 615.533984 160.739236 
z
" clip-path="url(#p0f72ddf439)" style="fill: #1d3158"/>
   </g>
   <g id="patch_50">
    <path d="M 621.002734 170.211389 
L 631.940234 170.211389 
L 626.471484 160.739236 
z
" clip-path="url(#p0f72ddf439)" style="fill: #1d3158"/>
   </g>
   <g id="patch_51">
    <path d="M 615.533984 160.739236 
L 626.471484 160.739236 
L 621.002734 151.267083 
z
" clip-path="url(#p0f72ddf439)" style="fill: #1d3158"/>
   </g>
   <g id="patch_52">
    <path d="M 631.940234 170.211389 
L 642.877734 170.211389 
L 637.408984 160.739236 
z
" clip-path="url(#p0f72ddf439)" style="fill: #1d3158"/>
   </g>
   <g id="patch_53">
    <path d="M 642.877734 170.211389 
L 653.815234 170.211389 
L 648.346484 160.739236 
z
" clip-path="url(#p0f72ddf439)" style="fill: #1d3158"/>
   </g>
   <g id="patch_54">
    <path d="M 637.408984 160.739236 
L 648.346484 160.739236 
L 642.877734 151.267083 
z
" clip-path="url(#p0f72ddf439)" style="fill: #1d3158"/>
   </g>
   <g id="patch_55">
    <path d="M 621.002734 151.267083 
L 631.940234 151.267083 
L 626.471484 141.79493 
z
" clip-path="url(#p0f72ddf439)" style="fill: #1d3158"/>
   </g>
   <g id="patch_56">
    <path d="M 631.940234 151.267083 
L 642.877734 151.267083 
L 637.408984 141.79493 
z
" clip-path="url(#p0f72ddf439)" style="fill: #1d3158"/>
   </g>
   <g id="patch_57">
    <path d="M 626.471484 141.79493 
L 637.408984 141.79493 
L 631.940234 132.322777 
z
" clip-path="url(#p0f72ddf439)" style="fill: #1d3158"/>
   </g>
   <g id="patch_58">
    <path d="M 544.440234 132.322777 
L 555.377734 132.322777 
L 549.908984 122.850624 
z
" clip-path="url(#p0f72ddf439)" style="fill: #1d3158"/>
   </g>
   <g id="patch_59">
    <path d="M 555.377734 132.322777 
L 566.315234 132.322777 
L 560.846484 122.850624 
z
" clip-path="url(#p0f72ddf439)" style="fill: #1d3158"/>
   </g>
   <g id="patch_60">
    <path d="M 549.908984 122.850624 
L 560.846484 122.850624 
L 555.377734 113.378471 
z
" clip-path="url(#p0f72ddf439)" style="fill: #1d3158"/>
   </g>
   <g id="patch_61">
    <path d="M 566.315234 132.322777 
L 577.252734 132.322777 
L 571.783984 122.850624 
z
" clip-path="url(#p0f72ddf439)" style="fill: #1d3158"/>
   </g>
   <g id="patch_62">
    <path d="M 577.252734 132.322777 
L 588.190234 132.322777 
L 582.721484 122.850624 
z
" clip-path="url(#p0f72ddf439)" style="fill: #1d3158"/>
   </g>
   <g id="patch_63">
    <path d="M 571.783984 122.850624 
L 582.721484 122.850624 
L 577.252734 113.378471 
z
" clip-path="url(#p0f72ddf439)" style="fill: #1d3158"/>
   </g>
   <g id="patch_64">
    <path d="M 555.377734 113.378471 
L 566.315234 113.378471 
L 560.846484 103.906319 
z
" clip-path="url(#p0f72ddf439)" style="fill: #1d3158"/>
   </g>
   <g id="patch_65">
    <path d="M 566.315234 113.378471 
L 577.252734 113.378471 
L 571.783984 103.906319 
z
" clip-path="url(#p0f72ddf439)" style="fill: #1d3158"/>
   </g>
   <g id="patch_66">
    <path d="M 560.846484 103.906319 
L 571.783984 103.906319 
L 566.315234 94.434166 
z
" clip-path="url(#p0f72ddf439)" style="fill: #1d3158"/>
   </g>
   <g id="patch_67">
    <path d="M 588.190234 132.322777 
L 599.127734 132.322777 
L 593.658984 122.850624 
z
" clip-path="url(#p0f72ddf439)" style="fill: #1d3158"/>
   </g>
   <g id="patch_68">
    <path d="M 599.127734 132.322777 
L 610.065234 132.322777 
L 604.596484 122.850624 
z
" clip-path="url(#p0f72ddf439)" style="fill: #1d3158"/>
   </g>
   <g id="patch_69">
    <path d="M 593.658984 122.850624 
L 604.596484 122.850624 
L 599.127734 113.378471 
z
" clip-path="url(#p0f72ddf439)" style="fill: #1d3158"/>
   </g>
   <g id="patch_70">
    <path d="M 610.065234 132.322777 
L 621.002734 132.322777 
L 615.533984 122.850624 
z
" clip-path="url(#p0f72ddf439)" style="fill: #1d3158"/>
   </g>
   <g id="patch_71">
    <path d="M 621.002734 132.322777 
L 631.940234 132.322777 
L 626.471484 122.850624 
z
" clip-path="url(#p0f72ddf439)" style="fill: #1d3158"/>
   </g>
   <g id="patch_72">
    <path d="M 615.533984 122.850624 
L 626.471484 122.850624 
L 621.002734 113.378471 
z
" clip-path="url(#p0f72ddf439)" style="fill: #1d3158"/>
   </g>
   <g id="patch_73">
    <path d="M 599.127734 113.378471 
L 610.065234 113.378471 
L 604.596484 103.906319 
z
" clip-path="url(#p0f72ddf439)" style="fill: #1d3158"/>
   </g>
   <g id="patch_74">
    <path d="M 610.065234 113.378471 
L 621.002734 113.378471 
L 615.533984 103.906319 
z
" clip-path="url(#p0f72ddf439)" style="fill: #1d3158"/>
   </g>
   <g id="patch_75">
    <path d="M 604.596484 103.906319 
L 615.533984 103.906319 
L 610.065234 94.434166 
z
" clip-path="url(#p0f72ddf439)" style="fill: #1d3158"/>
   </g>
   <g id="patch_76">
    <path d="M 566.315234 94.434166 
L 577.252734 94.434166 
L 571.783984 84.962013 
z
" clip-path="url(#p0f72ddf439)" style="fill: #1d3158"/>
   </g>
   <g id="patch_77">
    <path d="M 577.252734 94.434166 
L 588.190234 94.434166 
L 582.721484 84.962013 
z
" clip-path="url(#p0f72ddf439)" style="fill: #1d3158"/>
   </g>
   <g id="patch_78">
    <path d="M 571.783984 84.962013 
L 582.721484 84.962013 
L 577.252734 75.48986 
z
" clip-path="url(#p0f72ddf439)" style="fill: #1d3158"/>
   </g>
   <g id="patch_79">
    <path d="M 588.190234 94.434166 
L 599.127734 94.434166 
L 593.658984 84.962013 
z
" clip-path="url(#p0f72ddf439)" style="fill: #1d3158"/>
   </g>
   <g id="patch_80">
    <path d="M 599.127734 94.434166 
L 610.065234 94.434166 
L 604.596484 84.962013 
z
" clip-path="url(#p0f72ddf439)" style="fill: #1d3158"/>
   </g>
   <g id="patch_81">
    <path d="M 593.658984 84.962013 
L 604.596484 84.962013 
L 599.127734 75.48986 
z
" clip-path="url(#p0f72ddf439)" style="fill: #1d3158"/>
   </g>
   <g id="patch_82">
    <path d="M 577.252734 75.48986 
L 588.190234 75.48986 
L 582.721484 66.017707 
z
" clip-path="url(#p0f72ddf439)" style="fill: #1d3158"/>
   </g>
   <g id="patch_83">
    <path d="M 588.190234 75.48986 
L 599.127734 75.48986 
L 593.658984 66.017707 
z
" clip-path="url(#p0f72ddf439)" style="fill: #1d3158"/>
   </g>
   <g id="patch_84">
    <path d="M 582.721484 66.017707 
L 593.658984 66.017707 
L 588.190234 56.545554 
z
" clip-path="url(#p0f72ddf439)" style="fill: #1d3158"/>
   </g>
   <g id="patch_85">
    <path d="M 500.690234 208.1 
L 675.690234 208.1 
L 588.190234 56.545554 
L 500.690234 208.1 
z
" clip-path="url(#p0f72ddf439)" style="fill: none; stroke: #68758c; stroke-width: 1.2; stroke-linejoin: miter"/>
   </g>
   <g id="patch_86">
    <path d="M 500.690234 208.1 
L 588.190234 208.1 
L 544.440234 132.322777 
L 500.690234 208.1 
z
" clip-path="url(#p0f72ddf439)" style="fill: none; stroke: #f3cf52; stroke-width: 3; stroke-linejoin: miter"/>
   </g>
   <g id="patch_87">
    <path d="M 657.68859 177.22277 
Q 601.187857 176.056986 546.252038 174.923491 
" style="fill: none; stroke: #68758c; stroke-width: 1.4; stroke-linecap: round"/>
    <path d="M 550.407824 177.109685 
L 546.252038 174.923491 
L 550.494465 172.910578 
" style="fill: none; stroke: #68758c; stroke-width: 1.4; stroke-linecap: round"/>
   </g>
   <g id="text_8">
    <!-- one half-scale copy -->
    <g style="fill: #68758c" transform="translate(661.690234 181.247344) scale(0.105 -0.105)">
     <defs>
      <path id="DejaVuSans-2d" d="M 313 2009 
L 1997 2009 
L 1997 1497 
L 313 1497 
L 313 2009 
z
" transform="scale(0.015625)"/>
      <path id="DejaVuSans-70" d="M 1159 525 
L 1159 -1331 
L 581 -1331 
L 581 3500 
L 1159 3500 
L 1159 2969 
Q 1341 3281 1617 3432 
Q 1894 3584 2278 3584 
Q 2916 3584 3314 3078 
Q 3713 2572 3713 1747 
Q 3713 922 3314 415 
Q 2916 -91 2278 -91 
Q 1894 -91 1617 61 
Q 1341 213 1159 525 
z
M 3116 1747 
Q 3116 2381 2855 2742 
Q 2594 3103 2138 3103 
Q 1681 3103 1420 2742 
Q 1159 2381 1159 1747 
Q 1159 1113 1420 752 
Q 1681 391 2138 391 
Q 2594 391 2855 752 
Q 3116 1113 3116 1747 
z
" transform="scale(0.015625)"/>
     </defs>
     <use xlink:href="#DejaVuSans-6f"/>
     <use xlink:href="#DejaVuSans-6e" transform="translate(61.181641 0)"/>
     <use xlink:href="#DejaVuSans-65" transform="translate(124.560547 0)"/>
     <use xlink:href="#DejaVuSans-20" transform="translate(186.083984 0)"/>
     <use xlink:href="#DejaVuSans-68" transform="translate(217.871094 0)"/>
     <use xlink:href="#DejaVuSans-61" transform="translate(281.25 0)"/>
     <use xlink:href="#DejaVuSans-6c" transform="translate(342.529297 0)"/>
     <use xlink:href="#DejaVuSans-66" transform="translate(370.3125 0)"/>
     <use xlink:href="#DejaVuSans-2d" transform="translate(400.017578 0)"/>
     <use xlink:href="#DejaVuSans-73" transform="translate(436.101562 0)"/>
     <use xlink:href="#DejaVuSans-63" transform="translate(488.201172 0)"/>
     <use xlink:href="#DejaVuSans-61" transform="translate(543.181641 0)"/>
     <use xlink:href="#DejaVuSans-6c" transform="translate(604.460938 0)"/>
     <use xlink:href="#DejaVuSans-65" transform="translate(632.244141 0)"/>
     <use xlink:href="#DejaVuSans-20" transform="translate(693.767578 0)"/>
     <use xlink:href="#DejaVuSans-63" transform="translate(725.554688 0)"/>
     <use xlink:href="#DejaVuSans-6f" transform="translate(780.535156 0)"/>
     <use xlink:href="#DejaVuSans-70" transform="translate(841.716797 0)"/>
     <use xlink:href="#DejaVuSans-79" transform="translate(905.193359 0)"/>
    </g>
   </g>
   <g id="text_9">
    <!-- $L=2,\quad N=3,\quad N=L^D$ -->
    <g style="fill: #1d3158" transform="translate(515.520234 237.85) scale(0.13 -0.13)">
     <defs>
      <path id="DejaVuSans-Oblique-4c" d="M 1075 4666 
L 1709 4666 
L 909 525 
L 3181 525 
L 3078 0 
L 172 0 
L 1075 4666 
z
" transform="scale(0.015625)"/>
      <path id="DejaVuSans-Oblique-4e" d="M 1081 4666 
L 1931 4666 
L 3219 666 
L 4000 4666 
L 4616 4666 
L 3706 0 
L 2853 0 
L 1569 4025 
L 788 0 
L 172 0 
L 1081 4666 
z
" transform="scale(0.015625)"/>
      <path id="DejaVuSans-33" d="M 2597 2516 
Q 3050 2419 3304 2112 
Q 3559 1806 3559 1356 
Q 3559 666 3084 287 
Q 2609 -91 1734 -91 
Q 1441 -91 1130 -33 
Q 819 25 488 141 
L 488 750 
Q 750 597 1062 519 
Q 1375 441 1716 441 
Q 2309 441 2620 675 
Q 2931 909 2931 1356 
Q 2931 1769 2642 2001 
Q 2353 2234 1838 2234 
L 1294 2234 
L 1294 2753 
L 1863 2753 
Q 2328 2753 2575 2939 
Q 2822 3125 2822 3475 
Q 2822 3834 2567 4026 
Q 2313 4219 1838 4219 
Q 1578 4219 1281 4162 
Q 984 4106 628 3988 
L 628 4550 
Q 988 4650 1302 4700 
Q 1616 4750 1894 4750 
Q 2613 4750 3031 4423 
Q 3450 4097 3450 3541 
Q 3450 3153 3228 2886 
Q 3006 2619 2597 2516 
z
" transform="scale(0.015625)"/>
      <path id="DejaVuSans-Oblique-44" d="M 1081 4666 
L 2438 4666 
Q 3519 4666 4070 4208 
Q 4622 3750 4622 2847 
Q 4622 2250 4412 1698 
Q 4203 1147 3834 769 
Q 3463 381 2891 190 
Q 2319 0 1538 0 
L 172 0 
L 1081 4666 
z
M 1613 4147 
L 909 519 
L 1734 519 
Q 2794 519 3375 1128 
Q 3956 1738 3956 2847 
Q 3956 3519 3581 3833 
Q 3206 4147 2406 4147 
L 1613 4147 
z
" transform="scale(0.015625)"/>
     </defs>
     <use xlink:href="#DejaVuSans-Oblique-4c" transform="translate(0 0.684375)"/>
     <use xlink:href="#DejaVuSans-3d" transform="translate(75.195312 0.684375)"/>
     <use xlink:href="#DejaVuSans-32" transform="translate(178.466797 0.684375)"/>
     <use xlink:href="#DejaVuSans-2c" transform="translate(242.089844 0.684375)"/>
     <use xlink:href="#DejaVuSans-Oblique-4e" transform="translate(390.771484 0.684375)"/>
     <use xlink:href="#DejaVuSans-3d" transform="translate(485.058594 0.684375)"/>
     <use xlink:href="#DejaVuSans-33" transform="translate(588.330078 0.684375)"/>
     <use xlink:href="#DejaVuSans-2c" transform="translate(651.953125 0.684375)"/>
     <use xlink:href="#DejaVuSans-Oblique-4e" transform="translate(800.634766 0.684375)"/>
     <use xlink:href="#DejaVuSans-3d" transform="translate(894.921875 0.684375)"/>
     <use xlink:href="#DejaVuSans-Oblique-4c" transform="translate(998.193359 0.684375)"/>
     <use xlink:href="#DejaVuSans-Oblique-44" transform="translate(1060.923021 38.965625) scale(0.7)"/>
    </g>
   </g>
   <g id="text_10">
    <!-- $D=\log N/\log L=\log 3/\log 2$ -->
    <g transform="translate(505.502734 267.6) scale(0.125 -0.125)">
     <defs>
      <path id="DejaVuSans-2f" d="M 1625 4666 
L 2156 4666 
L 531 -594 
L 0 -594 
L 1625 4666 
z
" transform="scale(0.015625)"/>
     </defs>
     <use xlink:href="#DejaVuSans-Oblique-44" transform="translate(0 0.015625)"/>
     <use xlink:href="#DejaVuSans-3d" transform="translate(96.484375 0.015625)"/>
     <use xlink:href="#DejaVuSans-6c" transform="translate(199.755859 0.015625)"/>
     <use xlink:href="#DejaVuSans-6f" transform="translate(227.539062 0.015625)"/>
     <use xlink:href="#DejaVuSans-67" transform="translate(288.720703 0.015625)"/>
     <use xlink:href="#DejaVuSans-Oblique-4e" transform="translate(368.432942 0.015625)"/>
     <use xlink:href="#DejaVuSans-2f" transform="translate(443.237629 0.015625)"/>
     <use xlink:href="#DejaVuSans-6c" transform="translate(476.929036 0.015625)"/>
     <use xlink:href="#DejaVuSans-6f" transform="translate(504.712239 0.015625)"/>
     <use xlink:href="#DejaVuSans-67" transform="translate(565.893879 0.015625)"/>
     <use xlink:href="#DejaVuSans-Oblique-4c" transform="translate(645.606118 0.015625)"/>
     <use xlink:href="#DejaVuSans-3d" transform="translate(720.801431 0.015625)"/>
     <use xlink:href="#DejaVuSans-6c" transform="translate(824.072915 0.015625)"/>
     <use xlink:href="#DejaVuSans-6f" transform="translate(851.856118 0.015625)"/>
     <use xlink:href="#DejaVuSans-67" transform="translate(913.037759 0.015625)"/>
     <use xlink:href="#DejaVuSans-33" transform="translate(992.749998 0.015625)"/>
     <use xlink:href="#DejaVuSans-2f" transform="translate(1056.373044 0.015625)"/>
     <use xlink:href="#DejaVuSans-6c" transform="translate(1090.064451 0.015625)"/>
     <use xlink:href="#DejaVuSans-6f" transform="translate(1117.847654 0.015625)"/>
     <use xlink:href="#DejaVuSans-67" transform="translate(1179.029294 0.015625)"/>
     <use xlink:href="#DejaVuSans-32" transform="translate(1258.741533 0.015625)"/>
    </g>
   </g>
   <g id="text_11">
    <!-- Magnifying a retained copy recovers the same construction. -->
    <g style="fill: #68758c" transform="translate(430.182461 295.6) scale(0.105 -0.105)">
     <defs>
      <path id="DejaVuSans-4d" d="M 628 4666 
L 1569 4666 
L 2759 1491 
L 3956 4666 
L 4897 4666 
L 4897 0 
L 4281 0 
L 4281 4097 
L 3078 897 
L 2444 897 
L 1241 4097 
L 1241 0 
L 628 0 
L 628 4666 
z
" transform="scale(0.015625)"/>
      <path id="DejaVuSans-76" d="M 191 3500 
L 800 3500 
L 1894 563 
L 2988 3500 
L 3597 3500 
L 2284 0 
L 1503 0 
L 191 3500 
z
" transform="scale(0.015625)"/>
      <path id="DejaVuSans-75" d="M 544 1381 
L 544 3500 
L 1119 3500 
L 1119 1403 
Q 1119 906 1312 657 
Q 1506 409 1894 409 
Q 2359 409 2629 706 
Q 2900 1003 2900 1516 
L 2900 3500 
L 3475 3500 
L 3475 0 
L 2900 0 
L 2900 538 
Q 2691 219 2414 64 
Q 2138 -91 1772 -91 
Q 1169 -91 856 284 
Q 544 659 544 1381 
z
M 1991 3584 
L 1991 3584 
z
" transform="scale(0.015625)"/>
     </defs>
     <use xlink:href="#DejaVuSans-4d"/>
     <use xlink:href="#DejaVuSans-61" transform="translate(86.279297 0)"/>
     <use xlink:href="#DejaVuSans-67" transform="translate(147.558594 0)"/>
     <use xlink:href="#DejaVuSans-6e" transform="translate(211.035156 0)"/>
     <use xlink:href="#DejaVuSans-69" transform="translate(274.414062 0)"/>
     <use xlink:href="#DejaVuSans-66" transform="translate(302.197266 0)"/>
     <use xlink:href="#DejaVuSans-79" transform="translate(335.652344 0)"/>
     <use xlink:href="#DejaVuSans-69" transform="translate(394.832031 0)"/>
     <use xlink:href="#DejaVuSans-6e" transform="translate(422.615234 0)"/>
     <use xlink:href="#DejaVuSans-67" transform="translate(485.994141 0)"/>
     <use xlink:href="#DejaVuSans-20" transform="translate(549.470703 0)"/>
     <use xlink:href="#DejaVuSans-61" transform="translate(581.257812 0)"/>
     <use xlink:href="#DejaVuSans-20" transform="translate(642.537109 0)"/>
     <use xlink:href="#DejaVuSans-72" transform="translate(674.324219 0)"/>
     <use xlink:href="#DejaVuSans-65" transform="translate(713.1875 0)"/>
     <use xlink:href="#DejaVuSans-74" transform="translate(774.710938 0)"/>
     <use xlink:href="#DejaVuSans-61" transform="translate(813.919922 0)"/>
     <use xlink:href="#DejaVuSans-69" transform="translate(875.199219 0)"/>
     <use xlink:href="#DejaVuSans-6e" transform="translate(902.982422 0)"/>
     <use xlink:href="#DejaVuSans-65" transform="translate(966.361328 0)"/>
     <use xlink:href="#DejaVuSans-64" transform="translate(1027.884766 0)"/>
     <use xlink:href="#DejaVuSans-20" transform="translate(1091.361328 0)"/>
     <use xlink:href="#DejaVuSans-63" transform="translate(1123.148438 0)"/>
     <use xlink:href="#DejaVuSans-6f" transform="translate(1178.128906 0)"/>
     <use xlink:href="#DejaVuSans-70" transform="translate(1239.310547 0)"/>
     <use xlink:href="#DejaVuSans-79" transform="translate(1302.787109 0)"/>
     <use xlink:href="#DejaVuSans-20" transform="translate(1361.966797 0)"/>
     <use xlink:href="#DejaVuSans-72" transform="translate(1393.753906 0)"/>
     <use xlink:href="#DejaVuSans-65" transform="translate(1432.617188 0)"/>
     <use xlink:href="#DejaVuSans-63" transform="translate(1494.140625 0)"/>
     <use xlink:href="#DejaVuSans-6f" transform="translate(1549.121094 0)"/>
     <use xlink:href="#DejaVuSans-76" transform="translate(1610.302734 0)"/>
     <use xlink:href="#DejaVuSans-65" transform="translate(1669.482422 0)"/>
     <use xlink:href="#DejaVuSans-72" transform="translate(1731.005859 0)"/>
     <use xlink:href="#DejaVuSans-73" transform="translate(1772.119141 0)"/>
     <use xlink:href="#DejaVuSans-20" transform="translate(1824.21875 0)"/>
     <use xlink:href="#DejaVuSans-74" transform="translate(1856.005859 0)"/>
     <use xlink:href="#DejaVuSans-68" transform="translate(1895.214844 0)"/>
     <use xlink:href="#DejaVuSans-65" transform="translate(1958.59375 0)"/>
     <use xlink:href="#DejaVuSans-20" transform="translate(2020.117188 0)"/>
     <use xlink:href="#DejaVuSans-73" transform="translate(2051.904297 0)"/>
     <use xlink:href="#DejaVuSans-61" transform="translate(2104.003906 0)"/>
     <use xlink:href="#DejaVuSans-6d" transform="translate(2165.283203 0)"/>
     <use xlink:href="#DejaVuSans-65" transform="translate(2262.695312 0)"/>
     <use xlink:href="#DejaVuSans-20" transform="translate(2324.21875 0)"/>
     <use xlink:href="#DejaVuSans-63" transform="translate(2356.005859 0)"/>
     <use xlink:href="#DejaVuSans-6f" transform="translate(2410.986328 0)"/>
     <use xlink:href="#DejaVuSans-6e" transform="translate(2472.167969 0)"/>
     <use xlink:href="#DejaVuSans-73" transform="translate(2535.546875 0)"/>
     <use xlink:href="#DejaVuSans-74" transform="translate(2587.646484 0)"/>
     <use xlink:href="#DejaVuSans-72" transform="translate(2626.855469 0)"/>
     <use xlink:href="#DejaVuSans-75" transform="translate(2667.96875 0)"/>
     <use xlink:href="#DejaVuSans-63" transform="translate(2731.347656 0)"/>
     <use xlink:href="#DejaVuSans-74" transform="translate(2786.328125 0)"/>
     <use xlink:href="#DejaVuSans-69" transform="translate(2825.537109 0)"/>
     <use xlink:href="#DejaVuSans-6f" transform="translate(2853.320312 0)"/>
     <use xlink:href="#DejaVuSans-6e" transform="translate(2914.501953 0)"/>
     <use xlink:href="#DejaVuSans-2e" transform="translate(2977.880859 0)"/>
    </g>
   </g>
   <g id="text_12">
    <!-- One self-similar fractal -->
    <g style="fill: #1d3158" transform="translate(538.808516 21.6) scale(0.14 -0.14)">
     <defs>
      <path id="DejaVuSans-4f" d="M 2522 4238 
Q 1834 4238 1429 3725 
Q 1025 3213 1025 2328 
Q 1025 1447 1429 934 
Q 1834 422 2522 422 
Q 3209 422 3611 934 
Q 4013 1447 4013 2328 
Q 4013 3213 3611 3725 
Q 3209 4238 2522 4238 
z
M 2522 4750 
Q 3503 4750 4090 4092 
Q 4678 3434 4678 2328 
Q 4678 1225 4090 567 
Q 3503 -91 2522 -91 
Q 1538 -91 948 565 
Q 359 1222 359 2328 
Q 359 3434 948 4092 
Q 1538 4750 2522 4750 
z
" transform="scale(0.015625)"/>
     </defs>
     <use xlink:href="#DejaVuSans-4f"/>
     <use xlink:href="#DejaVuSans-6e" transform="translate(78.710938 0)"/>
     <use xlink:href="#DejaVuSans-65" transform="translate(142.089844 0)"/>
     <use xlink:href="#DejaVuSans-20" transform="translate(203.613281 0)"/>
     <use xlink:href="#DejaVuSans-73" transform="translate(235.400391 0)"/>
     <use xlink:href="#DejaVuSans-65" transform="translate(287.5 0)"/>
     <use xlink:href="#DejaVuSans-6c" transform="translate(349.023438 0)"/>
     <use xlink:href="#DejaVuSans-66" transform="translate(376.806641 0)"/>
     <use xlink:href="#DejaVuSans-2d" transform="translate(406.511719 0)"/>
     <use xlink:href="#DejaVuSans-73" transform="translate(442.595703 0)"/>
     <use xlink:href="#DejaVuSans-69" transform="translate(494.695312 0)"/>
     <use xlink:href="#DejaVuSans-6d" transform="translate(522.478516 0)"/>
     <use xlink:href="#DejaVuSans-69" transform="translate(619.890625 0)"/>
     <use xlink:href="#DejaVuSans-6c" transform="translate(647.673828 0)"/>
     <use xlink:href="#DejaVuSans-61" transform="translate(675.457031 0)"/>
     <use xlink:href="#DejaVuSans-72" transform="translate(736.736328 0)"/>
     <use xlink:href="#DejaVuSans-20" transform="translate(777.849609 0)"/>
     <use xlink:href="#DejaVuSans-66" transform="translate(809.636719 0)"/>
     <use xlink:href="#DejaVuSans-72" transform="translate(844.841797 0)"/>
     <use xlink:href="#DejaVuSans-61" transform="translate(885.955078 0)"/>
     <use xlink:href="#DejaVuSans-63" transform="translate(947.234375 0)"/>
     <use xlink:href="#DejaVuSans-74" transform="translate(1002.214844 0)"/>
     <use xlink:href="#DejaVuSans-61" transform="translate(1041.423828 0)"/>
     <use xlink:href="#DejaVuSans-6c" transform="translate(1102.703125 0)"/>
    </g>
   </g>
  </g>
 </g>
 <defs>
  <clipPath id="pbfc3b48df5">
   <rect x="61.092658" y="68.651032" width="290.970554" height="201.897935"/>
  </clipPath>
  <clipPath id="p0f72ddf439">
   <rect x="486.690234" y="29.6" width="262.5" height="280"/>
  </clipPath>
 </defs>
</svg>
